<svg width="189" height="191" viewBox="0 0 189 191" fill="none" xmlns="http://www.w3.org/2000/svg">
<g filter="url(#filter0_d)">
<circle cx="94.5" cy="90.5" r="90.5" fill="#CC0000"/>
<circle cx="94.5" cy="90.5" r="90" stroke="black"/>
<circle cx="94.5" cy="90.5" r="90" stroke="black" stroke-opacity="0.2"/>
</g>
<g filter="url(#filter1_d)">
<path d="M185 92.5C185 142.482 144.482 183 94.5 183C44.5182 183 4 142.482 4 92.5C4 42.5182 44.5182 106 94.5 106C144.482 106 185 42.5182 185 92.5Z" fill="white"/>
<path d="M184.5 92.5C184.5 142.206 144.206 182.5 94.5 182.5C44.7944 182.5 4.5 142.206 4.5 92.5C4.5 86.2737 5.13271 81.8737 6.30358 78.9138C7.46543 75.9766 9.13521 74.502 11.2264 74.01C13.3646 73.5071 16.0476 74.0038 19.273 75.2722C22.4868 76.536 26.162 78.5339 30.2535 80.9379C32.2812 82.1293 34.4093 83.4195 36.6292 84.7654C43.345 88.8369 50.901 93.4179 59.0579 97.3131C69.9193 102.5 81.9004 106.5 94.5 106.5C107.1 106.5 119.081 102.5 129.942 97.3131C138.099 93.4179 145.655 88.8369 152.371 84.7654C154.591 83.4195 156.719 82.1293 158.746 80.9379C162.838 78.5339 166.513 76.536 169.727 75.2722C172.952 74.0038 175.635 73.5071 177.774 74.01C179.865 74.502 181.535 75.9766 182.696 78.9138C183.867 81.8737 184.5 86.2737 184.5 92.5Z" stroke="black"/>
<path d="M184.5 92.5C184.5 142.206 144.206 182.5 94.5 182.5C44.7944 182.5 4.5 142.206 4.5 92.5C4.5 86.2737 5.13271 81.8737 6.30358 78.9138C7.46543 75.9766 9.13521 74.502 11.2264 74.01C13.3646 73.5071 16.0476 74.0038 19.273 75.2722C22.4868 76.536 26.162 78.5339 30.2535 80.9379C32.2812 82.1293 34.4093 83.4195 36.6292 84.7654C43.345 88.8369 50.901 93.4179 59.0579 97.3131C69.9193 102.5 81.9004 106.5 94.5 106.5C107.1 106.5 119.081 102.5 129.942 97.3131C138.099 93.4179 145.655 88.8369 152.371 84.7654C154.591 83.4195 156.719 82.1293 158.746 80.9379C162.838 78.5339 166.513 76.536 169.727 75.2722C172.952 74.0038 175.635 73.5071 177.774 74.01C179.865 74.502 181.535 75.9766 182.696 78.9138C183.867 81.8737 184.5 86.2737 184.5 92.5Z" stroke="black" stroke-opacity="0.2"/>
</g>
<rect x="4" y="77" width="181" height="27" fill="#020202"/>
<g filter="url(#filter2_d)">
<ellipse cx="94.5" cy="90" rx="22.5" ry="22" fill="white"/>
<path d="M116.5 90C116.5 101.864 106.661 111.5 94.5 111.5C82.3391 111.5 72.5 101.864 72.5 90C72.5 78.1364 82.3391 68.5 94.5 68.5C106.661 68.5 116.5 78.1364 116.5 90Z" stroke="black"/>
</g>
<path d="M21.3417 76.1652C21.0374 76.1652 20.7331 76.1652 20.4289 76.1652C20.2958 76.1652 20.1627 76.1652 20.0295 76.1652C19.8932 76.1652 20.0231 76.1652 20.0866 76.1652C20.1674 76.1652 20.2482 76.1652 20.329 76.1652C20.4407 76.1652 20.6589 76.1198 20.7569 76.0654C20.8821 75.9959 21.0684 76.0299 21.199 75.9719C21.3094 75.9228 21.4465 75.9443 21.5698 75.937C21.5891 75.9359 21.7236 75.884 21.6554 75.88C21.5712 75.875 21.4491 75.8623 21.3686 75.8372C21.2591 75.803 21.1523 75.8295 21.0437 75.7801C20.9789 75.7507 20.9083 75.7381 20.8425 75.7088C20.6862 75.6394 20.4939 75.6478 20.3433 75.5725C20.1893 75.4955 20.0086 75.4967 19.8584 75.4299C19.767 75.3893 19.6551 75.3903 19.5668 75.338C19.4929 75.2942 19.3825 75.2402 19.3022 75.2223C19.0407 75.1642 18.7912 75.0546 18.5178 75.0242C18.3609 75.0068 18.2181 74.8705 18.0614 74.8531C17.8889 74.8339 17.743 74.6534 17.5622 74.6534C17.3969 74.6534 17.2152 74.564 17.0646 74.4981C16.9024 74.4272 16.703 74.4426 16.5369 74.3951C16.3126 74.331 16.0731 74.1817 15.8365 74.1685C15.695 74.1607 15.5506 74.0702 15.4086 74.0544C15.3796 74.0512 15.2352 74.0355 15.2153 74.0196C15.1604 73.9756 15.0855 74.0176 15.0235 73.9831C14.7853 73.8508 14.4542 73.9408 14.2106 73.8326C14.0792 73.7742 13.8859 73.8441 13.7542 73.7914C13.6025 73.7307 13.4188 73.7407 13.255 73.7407C12.9672 73.7407 12.6793 73.7407 12.3914 73.7407C12.2562 73.7407 12.1209 73.7407 11.9857 73.7407C11.831 73.7407 11.6668 73.7977 11.5151 73.7977C11.3949 73.7977 11.2444 73.8419 11.1442 73.8975C11.0887 73.9284 11.0016 73.926 10.9858 73.9815C10.9609 74.0685 10.9303 73.9404 10.9303 73.9118" stroke="#CC0000" stroke-linecap="round"/>
<path d="M18.7174 74.5393C18.5885 74.5393 18.4597 74.5393 18.3308 74.5393C18.222 74.5393 18.133 74.4792 18.0313 74.4538C17.8482 74.408 17.6565 74.3288 17.475 74.2684C17.1114 74.1471 16.7602 74.0341 16.3769 73.9958C16.0884 73.9669 15.7781 73.8713 15.4942 73.804C15.2557 73.7475 14.9748 73.7232 14.7304 73.7121C14.6367 73.7079 13.9053 73.729 13.8683 73.6551" stroke="#CC0000" stroke-linecap="round"/>
<path d="M10.9874 73.7407C10.7859 73.7407 10.4698 73.6828 10.2885 73.7834C10.1207 73.8767 9.89145 73.8583 9.71803 73.9546C9.39832 74.1322 9.00154 74.2548 8.76247 74.5536C8.68018 74.6565 8.47979 74.782 8.36313 74.8468C8.21672 74.9281 8.03359 75.0256 7.90674 75.1383C7.78369 75.2477 7.67353 75.3589 7.55811 75.4743C7.48459 75.5478 7.34245 75.7068 7.25069 75.7374" stroke="#CC0000" stroke-linecap="round"/>
<path d="M8.15985 76.4298C8.19039 76.4298 8.25586 76.4412 8.28482 76.4283C8.31062 76.4169 8.35489 76.4101 8.38347 76.4101C8.40283 76.4101 8.43105 76.4055 8.44997 76.4002C8.48548 76.3903 8.52949 76.3969 8.56617 76.3969C8.63911 76.3969 8.71275 76.3903 8.78467 76.3903C8.80769 76.3903 8.83071 76.3903 8.85373 76.3903C8.87997 76.3903 8.87135 76.3946 8.85044 76.3969C8.82753 76.3995 8.80899 76.4101 8.78467 76.4101C8.76724 76.4101 8.74945 76.409 8.73206 76.4101C8.66984 76.4137 8.60695 76.4495 8.54132 76.4495C8.50791 76.4495 8.47693 76.4561 8.44266 76.4561C8.4286 76.4561 8.36961 76.4619 8.35862 76.4707C8.34068 76.4851 8.28872 76.4758 8.26508 76.4758C8.23384 76.4758 8.20084 76.4808 8.17301 76.4824C8.11235 76.486 8.05037 76.4956 7.98885 76.4956C7.98154 76.4956 7.94392 76.4986 7.95925 76.4952C7.97171 76.4924 7.98502 76.4764 7.99542 76.4758C8.02914 76.4739 8.06359 76.4758 8.09737 76.4758C8.16314 76.4758 8.22891 76.4758 8.29468 76.4758C8.33559 76.4758 8.37859 76.4956 8.41928 76.4956C8.43401 76.4956 8.5069 76.5019 8.51501 76.512C8.52352 76.5226 8.59497 76.5219 8.61038 76.5219C8.64099 76.5219 8.67922 76.5281 8.70904 76.5215C8.73609 76.5155 8.77517 76.5087 8.80112 76.5087C8.83137 76.5087 8.86516 76.4956 8.89319 76.4956C8.89972 76.4956 8.96883 76.4755 8.96883 76.4799C8.96883 76.5026 9.02755 76.5021 9.04447 76.5021C9.11374 76.5021 9.17758 76.4693 9.24836 76.4693C9.31215 76.4693 9.37478 76.4561 9.43909 76.4561C9.49719 76.4561 9.67148 76.4561 9.61338 76.4561" stroke="#CC0000" stroke-linecap="round"/>
<path d="M9.14641 76.4232C9.19759 76.4232 9.24625 76.4101 9.29768 76.4101C9.3343 76.4101 9.39 76.3997 9.41935 76.4232C9.44529 76.444 9.46829 76.4659 9.48987 76.4875C9.50955 76.5072 9.46262 76.5021 9.45224 76.5021C9.43011 76.5021 9.41517 76.5087 9.39305 76.5087C9.30724 76.5087 9.22679 76.4956 9.14312 76.4956C9.10011 76.4956 9.06429 76.489 9.02144 76.489C8.98047 76.489 8.93769 76.4758 8.89977 76.4758C8.81984 76.4758 8.73119 76.4627 8.65313 76.4627C8.60961 76.4627 8.56773 76.4495 8.52487 76.4495C8.50405 76.4495 8.48322 76.4495 8.46239 76.4495C8.44166 76.4495 8.4241 76.4387 8.4032 76.4364C8.3557 76.4311 8.31133 76.4166 8.26179 76.4166C8.2517 76.4166 8.20659 76.4112 8.20589 76.4232C8.20444 76.4477 8.18029 76.4424 8.16496 76.4546C8.15086 76.4659 8.12832 76.4627 8.11052 76.4627C8.09665 76.4627 8.11138 76.4657 8.11344 76.4729C8.11679 76.4846 8.10723 76.4886 8.10723 76.4989C8.10723 76.5166 8.09844 76.5267 8.08604 76.5168C8.06564 76.5004 8.03488 76.5358 8.03488 76.4956" stroke="#CC0000" stroke-linecap="round"/>
<path d="M6.76552 76.4101C6.93925 76.4101 7.1114 76.4166 7.28511 76.4166C7.37597 76.4166 7.46683 76.4166 7.55769 76.4166C7.68014 76.4166 7.8044 76.3873 7.92674 76.3775C8.01186 76.3707 8.26754 76.3574 8.18215 76.3574C8.07947 76.3574 7.97679 76.3574 7.87412 76.3574C7.75785 76.3574 7.64335 76.3443 7.527 76.3443C7.40873 76.3443 7.29047 76.3443 7.1722 76.3443C7.08 76.3443 6.9878 76.3443 6.8956 76.3443C6.87782 76.3443 6.82447 76.3443 6.84225 76.3443C6.8671 76.3443 6.89194 76.3443 6.91679 76.3443C6.9969 76.3443 7.07224 76.3448 7.15064 76.3242C7.24114 76.3005 7.3325 76.2811 7.42322 76.2584C7.53325 76.2309 7.6386 76.1882 7.74842 76.1601C7.9041 76.1204 8.05453 76.068 8.20882 76.0253C8.28902 76.0031 8.36886 75.9707 8.44925 75.9511C8.46694 75.9468 8.53288 75.9431 8.4814 75.9431C8.40666 75.9431 8.33177 75.9446 8.25705 75.9431C8.16938 75.9413 8.0829 75.909 7.99616 75.8971C7.91299 75.8856 7.82946 75.8642 7.74514 75.8642C7.71557 75.8642 7.68724 75.8576 7.65781 75.8576C7.63954 75.8576 7.69435 75.8576 7.71262 75.8576C7.74112 75.8576 7.76962 75.8576 7.79812 75.8576C7.87261 75.8576 7.94964 75.8026 8.01297 75.7684C8.18629 75.6748 8.35868 75.5796 8.53183 75.4856C8.69757 75.3956 8.87023 75.3228 9.0368 75.2357C9.06696 75.2199 9.11729 75.2013 9.13472 75.1699C9.14477 75.1518 9.11498 75.1791 9.10878 75.1842C9.04027 75.2396 8.97037 75.2896 8.90489 75.3497C8.68962 75.5473 8.49126 75.7624 8.29944 75.9826C8.226 76.0668 8.15878 76.1562 8.08385 76.2391C8.07247 76.2516 8.11878 76.2303 8.12186 76.2277C8.23076 76.1358 8.32939 76.0267 8.43354 75.9292C8.62936 75.746 8.83072 75.5688 9.02584 75.3848C9.07333 75.34 9.12304 75.295 9.17784 75.2591C9.18771 75.2526 9.19834 75.2451 9.20561 75.2361C9.21044 75.23 9.21744 75.2459 9.20232 75.2459C9.19109 75.2459 9.17782 75.2495 9.17272 75.2393" stroke="#CC0000" stroke-linecap="round"/>
<path d="M9.33057 75.8773C9.45619 75.8145 9.59047 75.7834 9.71057 75.7078C9.83938 75.6266 9.95537 75.528 10.0869 75.4513C10.2152 75.3764 10.3471 75.3086 10.475 75.2328C10.5792 75.1709 10.6657 75.0936 10.7578 75.0154C10.7687 75.0061 10.9203 74.8957 10.9083 74.8747C10.9024 74.8643 10.8513 74.871 10.8396 74.871C10.7784 74.871 10.7189 74.8817 10.6584 74.8908C10.3841 74.9316 10.1012 74.9916 9.83737 75.0786C9.74991 75.1074 9.66752 75.1457 9.58378 75.1831C9.57992 75.1848 9.50291 75.218 9.50157 75.2167C9.49581 75.2109 9.58627 75.149 9.58926 75.1465C9.82947 74.9481 10.0569 74.7352 10.2967 74.5363C10.5724 74.3077 10.8473 74.0779 11.1261 73.853C11.1368 73.8444 11.3274 73.7145 11.319 73.6967C11.3102 73.6779 10.8951 73.9877 10.8747 74.0029C10.747 74.098 10.6247 74.1984 10.5013 74.2988C10.4071 74.3755 10.3095 74.457 10.2258 74.5451C10.0769 74.7017 9.91437 74.853 9.78548 75.0274C9.73568 75.0948 9.68573 75.1523 9.68573 75.239C9.68573 75.2755 9.7138 75.2472 9.73542 75.2335C9.94084 75.1036 10.1565 74.9936 10.3716 74.8805C10.5308 74.7968 10.6931 74.7233 10.8638 74.6664C10.9104 74.6509 10.9637 74.6211 11.0143 74.6211" stroke="#CC0000" stroke-linecap="round"/>
<path d="M10.2083 75.063C11.9613 75.063 13.6989 74.7729 15.4463 74.7349C16.4008 74.7142 17.3562 74.5612 18.3151 74.5475C18.6774 74.5423 19.0322 74.5006 19.3929 74.5006C19.6835 74.5006 19.3576 74.3167 19.2315 74.3132C17.4943 74.2649 15.7388 74.2799 14.004 74.3496C12.9667 74.3913 11.9362 74.3588 10.9008 74.4434C10.3543 74.488 9.79373 74.4538 9.24508 74.4538C8.8604 74.4538 9.29012 74.4538 9.43252 74.4538C9.75688 74.4538 10.0726 74.4113 10.3958 74.4069C11.598 74.3907 12.7999 74.36 14.004 74.36C14.7141 74.36 15.4271 74.3397 16.1361 74.3835C16.7378 74.4206 17.3128 74.5299 17.909 74.5943C18.1056 74.6156 18.4122 74.6357 18.5859 74.7349C18.636 74.7636 18.8102 74.7818 18.7525 74.7818C18.408 74.7818 18.0635 74.7818 17.719 74.7818C16.0089 74.7818 14.2852 74.8815 12.5826 75.0395C11.4446 75.1451 10.1995 75.1403 9.1097 75.5316C8.79394 75.6449 8.33007 75.8127 7.99026 75.8127C7.89134 75.8127 8.18812 75.8127 8.28704 75.8127C8.45767 75.8127 8.60958 75.7409 8.77908 75.719C9.72797 75.5966 10.7136 75.6721 11.6688 75.6721C12.56 75.6721 13.4512 75.6721 14.3424 75.6721C14.684 75.6721 15.0545 75.653 15.389 75.7294C15.5471 75.7655 15.8751 75.7283 15.5504 75.719C15.3382 75.7129 15.0587 75.5981 14.8475 75.6825C14.4395 75.8458 13.8951 75.8441 13.4625 75.8596C12.3974 75.8976 11.3839 76.1876 10.3255 76.1876C10.0618 76.1876 9.76634 76.2345 9.52884 76.2345C9.43122 76.2345 9.14612 76.3282 9.38826 76.3282C9.52884 76.3282 9.66942 76.3282 9.81 76.3282C10.4777 76.3282 11.1275 76.2813 11.8016 76.2813C12.5505 76.2813 13.3124 76.2345 14.0509 76.2345C14.7399 76.2345 15.4349 76.1407 16.1127 76.1407C16.3959 76.1407 16.7202 76.0627 17.0031 76.047C17.41 76.0244 17.8242 76.047 18.2318 76.047C18.6468 76.047 19.0697 75.9064 19.4867 75.9064C19.6203 75.9064 19.8876 75.9064 19.8876 75.9064C19.8876 75.9064 19.6047 75.9064 19.4632 75.9064C19.1413 75.9064 18.8207 75.8127 18.5026 75.8127C18.0748 75.8127 17.5843 75.7927 17.1645 75.7164C16.7825 75.647 16.3847 75.6721 15.993 75.6721C15.8383 75.6721 15.1755 75.7466 15.1755 75.5784" stroke="#CC0000" stroke-linecap="round"/>
<path d="M14.6758 76.4727C14.6367 76.4727 14.5977 76.4727 14.5586 76.4727C14.5415 76.4727 14.5245 76.4727 14.5074 76.4727C14.4903 76.4727 14.4631 76.4675 14.4475 76.4746C14.4109 76.4912 14.3632 76.4668 14.3281 76.4648C14.2874 76.4626 14.2459 76.4648 14.2051 76.4648C14.1823 76.4648 14.1595 76.4648 14.1367 76.4648C14.127 76.4648 14.1172 76.4648 14.1074 76.4648C14.0921 76.4648 14.1016 76.4727 14.1113 76.4727C14.1194 76.4727 14.127 76.4771 14.1367 76.4766C14.1443 76.4761 14.1528 76.4727 14.1621 76.4727C14.1826 76.4727 14.1999 76.4794 14.2188 76.4805C14.2376 76.4815 14.2582 76.4883 14.2773 76.4883C14.2933 76.4883 14.2878 76.4795 14.2754 76.4768C14.2659 76.4747 14.2539 76.4766 14.2441 76.4766C14.2227 76.4766 14.202 76.4757 14.1816 76.4803C14.161 76.4848 14.1352 76.4883 14.1141 76.4883C14.0918 76.4883 14.0701 76.4872 14.0488 76.492C14.0464 76.4925 14.0213 76.4922 14.0243 76.4952C14.0284 76.4993 14.0489 76.4961 14.0547 76.4961C14.0944 76.4961 14.1341 76.4961 14.1738 76.4961C14.21 76.4961 14.2469 76.4883 14.2852 76.4883C14.3237 76.4883 14.3639 76.4766 14.4043 76.4766C14.419 76.4766 14.4495 76.4708 14.4601 76.4813C14.4628 76.484 14.4743 76.4932 14.4707 76.4961C14.4648 76.5008 14.4548 76.5078 14.4473 76.5078C14.4263 76.5078 14.4099 76.5 14.3887 76.5C14.368 76.5 14.3477 76.5028 14.3281 76.5039C14.2902 76.506 14.249 76.5078 14.2129 76.5078C14.1323 76.5078 14.0536 76.5117 13.9727 76.5117" stroke="#CC0000" stroke-linecap="square"/>
<path d="M16.8315 75.9696C16.8904 76.0155 16.9699 76.0436 17.042 76.0631C17.1136 76.0824 17.2052 76.105 17.2695 76.1418C17.3414 76.1829 17.4208 76.18 17.5013 76.18C17.5913 76.18 17.6787 76.1705 17.767 76.1705C17.8283 76.1705 17.8896 76.1705 17.9509 76.1705C17.9854 76.1705 18.0123 76.1896 18.0418 76.1896C18.0912 76.1896 18.1485 76.221 18.1992 76.2273C18.2428 76.2328 18.2776 76.2478 18.3193 76.2571C18.4058 76.2763 18.1427 76.2374 18.0541 76.2374C17.9186 76.2374 17.7858 76.2279 17.6501 76.2279C17.5977 76.2279 17.5472 76.2374 17.4938 76.2374C17.4355 76.2374 17.3696 76.2307 17.3147 76.2518C17.2618 76.2721 17.1936 76.2778 17.1377 76.2858C17.1135 76.2893 17.0986 76.3044 17.0728 76.3044C17.0484 76.3044 17.0239 76.3044 16.9995 76.3044C16.9621 76.3044 16.9194 76.3192 16.9798 76.3326C17.0164 76.3407 17.0638 76.3331 17.1015 76.3331C17.3811 76.3331 17.6559 76.3306 17.9318 76.3613C18.0389 76.3732 18.1539 76.3618 18.2619 76.3618C18.297 76.3618 18.332 76.3618 18.3671 76.3618C18.4023 76.3618 18.4574 76.3714 18.391 76.3714C18.3151 76.3714 18.2403 76.3905 18.1614 76.3905C18.0865 76.3905 18.0115 76.3905 17.9366 76.3905C17.7762 76.3905 17.6162 76.4001 17.4582 76.4001C17.3005 76.4001 17.141 76.4288 16.9846 76.4288C16.9525 76.4288 16.9063 76.4384 16.9655 76.4384C17.0016 76.4384 17.0369 76.4288 17.0707 76.4288C17.1547 76.4288 17.2435 76.4097 17.329 76.4097C17.4853 76.4097 17.6416 76.4097 17.7979 76.4097C17.9526 76.4097 18.1058 76.4001 18.2619 76.4001C18.4059 76.4001 18.55 76.4001 18.694 76.4001C18.7381 76.4001 18.7823 76.4001 18.8264 76.4001C18.8383 76.4001 18.8532 76.41 18.862 76.4171C18.8764 76.4286 18.9097 76.4142 18.9268 76.4214C18.9836 76.4453 19.0753 76.4288 19.1373 76.4288C19.1724 76.4288 19.2075 76.4288 19.2426 76.4288C19.2593 76.4288 19.2904 76.4202 19.2904 76.4432C19.2904 76.4665 19.2946 76.4643 19.3005 76.4437C19.3209 76.3724 19.4456 76.3714 19.5057 76.3714C19.5388 76.3714 19.5752 76.3618 19.6109 76.3618C19.6452 76.3618 19.6821 76.3669 19.7114 76.3523" stroke="#CC0000" stroke-linecap="square"/>
<path d="M21.3857 75.9217C21.8011 75.9217 22.2164 75.9217 22.6317 75.9217C22.7719 75.9217 22.9114 75.8774 23.0527 75.8739C23.2906 75.8679 23.5324 75.8289 23.7681 75.7973C24.006 75.7655 24.2551 75.7495 24.4952 75.7495C24.5445 75.7495 24.4676 75.7764 24.4549 75.7803C24.4126 75.7934 24.3648 75.7878 24.3209 75.7878C23.879 75.7878 23.4486 75.8547 23.0123 75.9116C22.7742 75.9427 22.5376 75.9846 22.3 76.0174C22.186 76.0331 22.0736 76.036 21.9593 76.0456C21.7608 76.0621 21.5633 76.0979 21.3655 76.1226C21.3386 76.126 21.2467 76.1418 21.247 76.1418C21.2726 76.1418 21.2997 76.1469 21.3236 76.1561C21.3654 76.1722 21.4287 76.1609 21.4724 76.1609C21.5631 76.1609 21.6545 76.1576 21.7451 76.1614C21.9797 76.1714 22.2172 76.18 22.452 76.18C22.6292 76.18 22.8059 76.182 22.9825 76.171C23.1809 76.1586 23.3804 76.1791 23.5789 76.163C23.6794 76.1549 23.7821 76.1609 23.8829 76.1609C23.9107 76.1609 23.9882 76.1472 24.0094 76.1683C24.0307 76.1896 23.9492 76.1705 23.9191 76.1705C23.863 76.1705 23.8138 76.1627 23.7585 76.1535C23.6209 76.1305 23.4777 76.1418 23.3386 76.1418C23.0855 76.1418 22.8407 76.1405 22.5902 76.18C22.4255 76.206 22.2597 76.2121 22.0959 76.2449C21.9723 76.2696 21.8545 76.2948 21.7281 76.2948C21.6299 76.2948 21.5317 76.2948 21.4336 76.2948C21.3857 76.2948 21.2422 76.2948 21.2901 76.2948C21.3841 76.2948 21.4782 76.2948 21.5723 76.2948C21.9421 76.2948 22.3119 76.2948 22.6816 76.2948C22.8191 76.2948 22.9566 76.2948 23.0941 76.2948C23.2195 76.2948 23.3458 76.2757 23.471 76.2757C23.6209 76.2757 23.7738 76.2661 23.9254 76.2661C23.9492 76.2661 24.1826 76.2506 24.1886 76.2715C24.1988 76.3072 24.0431 76.2948 24.0243 76.2948C23.8272 76.2948 23.6318 76.3236 23.4354 76.3236C23.2125 76.3236 22.9866 76.3461 22.7635 76.3523C22.592 76.357 22.4255 76.3905 22.2522 76.3905C22.1724 76.3905 22.0976 76.4266 22.0172 76.4288C21.9758 76.4299 21.9298 76.4395 21.8886 76.4458C21.848 76.452 21.8012 76.4414 21.7637 76.4623C21.754 76.4676 21.7085 76.4729 21.7355 76.4575C21.7565 76.4455 21.7736 76.4247 21.7924 76.4097C21.8237 76.3846 21.8656 76.3618 21.9072 76.3618C22.0645 76.3618 22.218 76.314 22.376 76.314C22.5915 76.314 22.8069 76.314 23.0224 76.314C23.1021 76.314 23.1818 76.314 23.2615 76.314C23.3446 76.314 23.4209 76.3334 23.5002 76.3544C23.6074 76.3828 23.7048 76.4192 23.8159 76.4192C23.8606 76.4192 23.9052 76.4192 23.9499 76.4192C24.0332 76.4192 23.9643 76.4351 23.9308 76.4501C23.8914 76.4676 23.8325 76.4575 23.7894 76.4575C23.7344 76.4575 23.6795 76.4575 23.6246 76.4575C23.5337 76.4575 23.4428 76.4575 23.3519 76.4575C23.1759 76.4575 23.0044 76.4479 22.8257 76.4479C22.7461 76.4479 22.5079 76.4671 22.5876 76.4671C22.6072 76.4671 22.6341 76.4719 22.6529 76.4665C22.6829 76.458 22.6337 76.4671 22.6248 76.4671C22.5864 76.4671 22.5147 76.4854 22.5147 76.4384" stroke="#CC0000" stroke-linecap="square"/>
<path d="M22.2424 75.9924C21.9956 75.9454 21.7343 75.9924 21.4872 75.9924C21.3605 75.9924 21.2292 76.0086 21.1031 76.0212C20.9818 76.0333 20.8567 76.0785 20.7354 76.0813C20.498 76.0866 20.2435 76.1183 20.0139 76.1693C19.9927 76.174 19.833 76.2293 19.8955 76.2293C19.9789 76.2293 20.068 76.2441 20.1546 76.2441C20.3549 76.2441 20.5469 76.2145 20.7461 76.2145C20.992 76.2145 21.238 76.2145 21.4839 76.2145C21.6035 76.2145 21.7231 76.2145 21.8426 76.2145C21.8586 76.2145 21.9182 76.2047 21.9166 76.2293C21.9147 76.2607 21.7708 76.2589 21.7464 76.2589C21.5422 76.2589 21.313 76.2326 21.1171 76.2886C21.0318 76.3129 20.9522 76.3214 20.8653 76.3338C20.7979 76.3434 20.7254 76.3774 20.6613 76.3774C20.6103 76.3774 20.4877 76.3774 20.6103 76.3774C20.6875 76.3774 20.772 76.366 20.844 76.3922C20.9225 76.4208 21.0108 76.4018 21.0874 76.4292C21.1619 76.4558 21.2492 76.4484 21.3277 76.4514C21.3992 76.4542 21.4718 76.4662 21.5465 76.4662C21.5795 76.4662 21.7039 76.4842 21.7242 76.4588C21.7345 76.4459 21.8078 76.4514 21.7529 76.4514C21.6848 76.4514 21.6397 76.4359 21.5761 76.4218C21.4969 76.4042 21.436 76.3922 21.354 76.3922C21.296 76.3922 21.2428 76.4336 21.1911 76.4366C21.125 76.4405 21.0574 76.4366 20.9912 76.4366C20.8604 76.4366 20.7296 76.4366 20.5988 76.4366C20.5169 76.4366 20.2879 76.3981 20.2253 76.4481C20.1883 76.4778 20.0971 76.4662 20.0509 76.4662C19.9377 76.4662 20.0275 76.4662 20.088 76.4662C20.207 76.4662 20.3307 76.4366 20.4507 76.4366C20.7016 76.4366 20.96 76.4514 21.2059 76.4514C21.2338 76.4514 21.3688 76.4404 21.3688 76.481C21.3688 76.5186 21.2438 76.5455 21.2133 76.5625C21.1112 76.6192 20.9885 76.5255 20.895 76.5255C20.6497 76.5255 20.4094 76.5107 20.162 76.5107C19.9199 76.5107 19.6936 76.5255 19.4513 76.5255C19.3282 76.5255 19.2083 76.5107 19.0885 76.5107C18.9745 76.5107 18.868 76.481 18.7553 76.481C18.5085 76.481 18.2617 76.481 18.015 76.481C17.894 76.481 17.7731 76.481 17.6522 76.481C17.5921 76.481 17.5426 76.4514 17.4819 76.4514C17.4388 76.4514 17.3105 76.4753 17.356 76.407" stroke="#CC0000" stroke-linecap="square"/>
<path d="M17.5781 76.481C16.9316 76.481 16.2818 76.4662 15.6384 76.4662C15.4569 76.4662 15.2754 76.4662 15.0938 76.4662C15.0508 76.4662 15.013 76.4798 14.9721 76.481C14.9379 76.4821 14.8853 76.471 14.8536 76.4843C14.8236 76.497 14.7037 76.5218 14.6908 76.4959" stroke="#CC0000" stroke-linecap="square"/>
<path d="M14.0837 76.5995C13.8295 76.5995 13.5753 76.5995 13.3211 76.5995C13.2441 76.5995 13.1611 76.5699 13.0842 76.5699C12.902 76.5699 12.7187 76.5403 12.5355 76.5403C12.1705 76.5403 11.8055 76.5403 11.4406 76.5403C11.3197 76.5403 11.1987 76.5403 11.0778 76.5403C10.9655 76.5403 10.8399 76.5238 10.7298 76.5477C10.6159 76.5724 10.4986 76.5666 10.3819 76.5699C9.94507 76.5824 9.50353 76.5847 9.06403 76.5847C8.87153 76.5847 8.67904 76.5847 8.48655 76.5847C8.37746 76.5847 8.27527 76.5403 8.16819 76.5403C8.11839 76.5403 7.94138 76.5672 8.01272 76.4959" stroke="#CC0000" stroke-linecap="square"/>
<path d="M180.353 75.3126C177.798 75.3126 175.244 75.3126 172.689 75.3126C172.287 75.3126 171.887 75.3373 171.487 75.3446C171.231 75.3493 170.984 75.4086 170.726 75.4086C170.385 75.4086 170.023 75.4432 169.684 75.4015C169.554 75.3854 169.415 75.3929 169.286 75.3695C169.237 75.3606 169.154 75.3283 169.247 75.3695C169.332 75.4072 169.482 75.3766 169.574 75.3766C169.934 75.3766 170.27 75.3285 170.623 75.2557C171.477 75.0796 172.349 74.9474 173.219 74.8894C174.129 74.8288 175.033 74.6953 175.943 74.6476C176.684 74.6089 177.461 74.6038 178.201 74.6476C178.874 74.6874 179.528 74.8507 180.193 74.9463C180.491 74.9893 180.788 74.9926 181.089 74.9926C181.295 74.9926 180.891 74.9202 180.826 74.8965C180.463 74.7646 180.011 74.7742 179.634 74.7365C178.528 74.6259 177.418 74.5353 176.313 74.4094C175.13 74.2744 173.948 74.0929 172.76 74.0004C171.92 73.935 171.076 73.9903 170.236 73.9115C170.06 73.895 169.886 73.8724 169.709 73.8724C169.655 73.8724 169.624 73.8687 169.695 73.8724C169.923 73.8844 170.15 73.91 170.385 73.9044C171.004 73.8895 171.643 73.6571 172.245 73.5274C173.231 73.315 174.215 73.1662 175.221 73.0972C176.385 73.0173 177.541 73.0083 178.706 73.0083C179.398 73.0083 180.103 72.9727 180.794 73.0225C181.08 73.0431 181.361 73.0992 181.644 73.1434C181.697 73.1517 181.857 73.1623 181.804 73.1683C181.383 73.215 180.971 73.2822 180.545 73.3034C178.597 73.4003 176.636 73.3213 174.695 73.5452C174.689 73.5459 174.424 73.5943 174.446 73.6164C174.47 73.6407 174.643 73.6164 174.674 73.6164C175.443 73.6164 176.203 73.4722 176.967 73.3994C177.795 73.3206 178.618 73.2643 179.449 73.2643C179.818 73.2643 179.258 73.3349 179.151 73.3532C178.92 73.3924 177.435 73.3096 177.472 73.6484C177.481 73.7229 178.172 73.6804 178.24 73.6804C178.53 73.6804 178.803 73.7296 179.08 73.8155C179.246 73.8672 179.45 73.8798 179.585 74.0004C179.713 74.1155 179.959 74.2712 180.122 74.3276C180.365 74.4119 180.526 74.6122 180.737 74.7294C180.845 74.7897 181.011 75.0279 181.025 75.1526C181.041 75.298 181.207 75.468 181.274 75.6007C181.331 75.7161 181.481 75.7945 181.562 75.8958C181.61 75.9562 181.534 76.0807 181.473 76.0807C181.392 76.0807 181.315 76.0526 181.249 76.0487C181.112 76.0407 180.9 75.9862 180.769 75.9278C180.643 75.8721 180.394 75.9207 180.257 75.9207C180.116 75.9207 180.181 75.9847 180.289 75.9847C180.382 75.9847 180.428 75.9335 180.513 75.8958C180.616 75.85 180.908 75.8082 181 75.8816C181.051 75.9225 181.144 75.9459 181.178 76.0167C181.198 76.0589 180.784 76.0487 180.739 76.0487C180.557 76.0487 180.387 75.8749 180.221 75.8105C180.032 75.7369 179.784 75.745 179.585 75.7269C179.201 75.6921 178.818 75.6967 178.432 75.6967C177.487 75.6967 176.542 75.6967 175.596 75.6967C175.133 75.6967 174.637 75.7091 174.178 75.7767C173.822 75.829 173.443 75.8005 173.084 75.8229C172.854 75.8373 172.641 75.891 172.417 75.9189C172.357 75.9264 172.127 75.9847 172.303 75.9847C172.417 75.9847 172.53 75.9847 172.643 75.9847C172.926 75.9847 173.206 76.0324 173.489 76.0469C173.835 76.0647 174.183 76.0272 174.528 76.0647C176.698 76.3007 178.889 76.2728 181.073 76.2728C181.125 76.2728 181.306 76.2374 181.169 76.207C181.009 76.1715 180.833 76.1783 180.674 76.1287C180.337 76.0232 179.861 76.1276 179.521 76.1465C178.749 76.1894 177.989 76.3048 177.214 76.3048C176.659 76.3048 176.104 76.3048 175.548 76.3048C174.573 76.3048 173.596 76.3048 172.623 76.3048C172.389 76.3048 172.155 76.3048 171.921 76.3048C171.641 76.3048 171.353 76.21 171.073 76.175C170.891 76.1522 170.717 76.0674 170.547 76.0007C170.392 75.9402 170.182 75.8637 170.063 75.7447C169.952 75.6341 169.683 75.5008 169.729 75.2966C169.75 75.2004 170.004 75.1711 170.081 75.1366C170.359 75.0113 170.662 74.8276 170.956 74.7561C171.646 74.5881 172.314 74.5217 173.024 74.4823C173.478 74.457 173.957 74.3347 174.398 74.2244C174.949 74.0867 175.505 73.9785 176.066 73.8884C176.597 73.8029 177.144 73.8173 177.678 73.7604C178.042 73.7217 178.401 73.7124 178.767 73.7124C178.776 73.7124 179.161 73.7133 179.017 73.7906C178.781 73.9176 178.339 73.8404 178.079 73.8404C177.527 73.8404 177.013 73.9859 176.475 74.0804C175.533 74.2458 174.592 74.4126 173.648 74.5605C172.373 74.7601 171.086 74.8461 169.836 75.1704C169.488 75.2604 169.104 75.352 168.747 75.3784C168.456 75.4 168.165 75.4726 167.873 75.4726C167.795 75.4726 167.467 75.5013 167.472 75.5029C167.602 75.5398 167.809 75.5098 167.937 75.4886C168.214 75.4424 168.487 75.4406 168.767 75.4406" stroke="#CC0000" stroke-linecap="square"/>
<path d="M170.303 76.0487C169.153 76.0487 168.004 76.0487 166.854 76.0487C166.351 76.0487 165.847 76.0487 165.344 76.0487C165.104 76.0487 164.813 76.0227 164.581 75.9456C164.435 75.8968 164.752 75.9207 164.798 75.9207C165.028 75.9207 165.255 76.0182 165.485 76.0416C166.557 76.1513 167.657 76.0807 168.735 76.0807C169.088 76.0807 170.145 76.1767 169.791 76.1767C169.397 76.1767 169.004 76.1534 168.614 76.1447C168.129 76.134 167.654 76.0487 167.167 76.0487C166.791 76.0487 166.415 76.0487 166.039 76.0487C165.699 76.0487 165.354 76.0319 165.022 76.1056C164.817 76.1513 164.47 76.0748 164.293 76.2159C164.284 76.2229 164.125 76.3112 164.208 76.335C164.284 76.3567 164.367 76.4008 164.446 76.4008C164.611 76.4008 164.775 76.3688 164.926 76.3688C165.6 76.3688 166.253 76.3368 166.927 76.3368C167.119 76.3368 167.311 76.3368 167.503 76.3368C167.675 76.3368 167.838 76.2728 168.015 76.2728C168.186 76.2728 167.673 76.3048 167.501 76.3048C167.309 76.3048 167.091 76.3875 166.896 76.4079C166.647 76.434 166.405 76.4825 166.16 76.527C165.793 76.5937 164.669 76.5608 165.042 76.5608C165.237 76.5608 165.433 76.5608 165.629 76.5608C166.041 76.5608 166.528 76.6322 166.93 76.5448C167.208 76.4844 167.537 76.5288 167.823 76.5288C168.078 76.5288 168.334 76.5288 168.589 76.5288C169.075 76.5288 169.561 76.5288 170.047 76.5288C170.539 76.5288 170.981 76.4668 171.455 76.399C171.692 76.3652 171.932 76.3688 172.175 76.3688C172.255 76.3688 172.335 76.3688 172.415 76.3688C172.522 76.3688 172.629 76.4075 172.575 76.2728" stroke="#CC0000" stroke-linecap="square"/>
<path d="M170.911 75.3126C171.127 75.3829 171.368 75.4737 171.567 75.5847C171.685 75.6499 171.835 75.6658 171.967 75.7216C172.318 75.8691 172.667 76.0167 173.056 76.0167C173.437 76.0167 173.839 76.0651 174.208 76.1519C174.379 76.1922 174.527 76.2408 174.704 76.2408C174.858 76.2408 174.99 76.2967 175.136 76.3048C175.408 76.3199 175.66 76.3688 175.936 76.3688C176.248 76.3688 176.559 76.3688 176.871 76.3688C177.146 76.3688 177.421 76.3688 177.696 76.3688C177.731 76.3688 177.829 76.4032 177.785 76.4577C177.742 76.5113 177.679 76.4968 177.616 76.4968C177.476 76.4968 177.355 76.4648 177.216 76.4648C177.042 76.4648 176.572 76.3851 176.441 76.4897C176.373 76.5439 176.137 76.5288 176.048 76.5288C175.908 76.5288 175.784 76.5608 175.648 76.5608C175.107 76.5608 174.587 76.5928 174.048 76.5928C173.513 76.5928 172.972 76.5917 172.447 76.5608C172.329 76.5538 172.21 76.4328 172.079 76.4328C171.972 76.4328 171.835 76.4008 171.711 76.4008C171.595 76.4008 171.443 76.3933 171.343 76.4488C171.257 76.4968 171.083 76.5378 171.103 76.4968" stroke="#CC0000" stroke-linecap="square"/>
<path d="M182.369 76.4008C182.201 76.4008 181.806 76.3295 181.649 76.4168C181.524 76.486 181.311 76.4648 181.169 76.4648C181.124 76.4648 180.74 76.4515 180.74 76.4808C180.74 76.4862 181.165 76.5191 181.201 76.527C181.327 76.555 181.504 76.5364 181.633 76.5288C181.669 76.5267 181.772 76.4944 181.8 76.4719C181.879 76.409 181.711 76.4008 181.64 76.4008C181.275 76.4008 180.91 76.4008 180.545 76.4008C180.264 76.4008 179.982 76.4968 179.697 76.4968C179.505 76.4968 179.316 76.5288 179.12 76.5288C179.005 76.5288 178.804 76.5214 178.704 76.5768C178.602 76.6335 178.389 76.5928 178.272 76.5928C178.123 76.5928 177.974 76.5928 177.824 76.5928C177.525 76.5928 177.262 76.4648 176.96 76.4648" stroke="#CC0000" stroke-linecap="square"/>
<defs>
<filter id="filter0_d" x="0" y="0" width="189" height="189" filterUnits="userSpaceOnUse" color-interpolation-filters="sRGB">
<feFlood flood-opacity="0" result="BackgroundImageFix"/>
<feColorMatrix in="SourceAlpha" type="matrix" values="0 0 0 0 0 0 0 0 0 0 0 0 0 0 0 0 0 0 127 0"/>
<feOffset dy="4"/>
<feGaussianBlur stdDeviation="2"/>
<feColorMatrix type="matrix" values="0 0 0 0 0 0 0 0 0 0 0 0 0 0 0 0 0 0 0.25 0"/>
<feBlend mode="normal" in2="BackgroundImageFix" result="effect1_dropShadow"/>
<feBlend mode="normal" in="SourceGraphic" in2="effect1_dropShadow" result="shape"/>
</filter>
<filter id="filter1_d" x="0" y="73.3165" width="189" height="117.684" filterUnits="userSpaceOnUse" color-interpolation-filters="sRGB">
<feFlood flood-opacity="0" result="BackgroundImageFix"/>
<feColorMatrix in="SourceAlpha" type="matrix" values="0 0 0 0 0 0 0 0 0 0 0 0 0 0 0 0 0 0 127 0"/>
<feOffset dy="4"/>
<feGaussianBlur stdDeviation="2"/>
<feColorMatrix type="matrix" values="0 0 0 0 0 0 0 0 0 0 0 0 0 0 0 0 0 0 0.25 0"/>
<feBlend mode="normal" in2="BackgroundImageFix" result="effect1_dropShadow"/>
<feBlend mode="normal" in="SourceGraphic" in2="effect1_dropShadow" result="shape"/>
</filter>
<filter id="filter2_d" x="68" y="68" width="53" height="52" filterUnits="userSpaceOnUse" color-interpolation-filters="sRGB">
<feFlood flood-opacity="0" result="BackgroundImageFix"/>
<feColorMatrix in="SourceAlpha" type="matrix" values="0 0 0 0 0 0 0 0 0 0 0 0 0 0 0 0 0 0 127 0"/>
<feOffset dy="4"/>
<feGaussianBlur stdDeviation="2"/>
<feColorMatrix type="matrix" values="0 0 0 0 0 0 0 0 0 0 0 0 0 0 0 0 0 0 0.25 0"/>
<feBlend mode="normal" in2="BackgroundImageFix" result="effect1_dropShadow"/>
<feBlend mode="normal" in="SourceGraphic" in2="effect1_dropShadow" result="shape"/>
</filter>
</defs>
</svg>
